<svg width="23" height="23" viewBox="0 0 23 23" fill="none" xmlns="http://www.w3.org/2000/svg">
<path d="M21.8052 14.0327L22.0744 4.07436L18.5755 0.575471L18.0372 0.59085L18.0372 8.11154L18.0372 11.3413L18.0372 17.8008L21.8052 14.0327Z" fill="#97E467"/>
<path d="M5.1182 4.8818L14.8074 4.8818L14.8074 11.3413L18.0372 8.11154L18.0372 0.59085L9.15538 0.844616L5.1182 4.8818Z" fill="#36CF58"/>
<path d="M14.8074 4.8818L5.6565 14.0327L8.88624 17.2625L14.8074 11.3413L14.8074 4.8818Z" fill="#367DCF"/>
<path d="M0.811879 9.18812L2.96504 7.03496H9.42453L4.04162 12.4179L0.811879 9.18812Z" fill="#3646CF"/>
<path d="M18.0372 11.3413L10.5011 18.8774L13.7309 22.1071L18.0372 17.8008L18.0372 11.3413Z" fill="#36CFAB"/>
</svg>
